<mxfile host="app.diagrams.net" agent="Mozilla/5.0 (Windows NT 10.0; Win64; x64) AppleWebKit/537.36 (KHTML, like Gecko) Chrome/131.0.0.0 Safari/537.36" version="26.0.4">
  <diagram name="Trang-1" id="brPVZOaULgiLOH0g9qmy">
    <mxGraphModel dx="1206" dy="616" grid="1" gridSize="10" guides="1" tooltips="1" connect="1" arrows="1" fold="1" page="1" pageScale="1" pageWidth="827" pageHeight="1169" math="0" shadow="0">
      <root>
        <mxCell id="0" />
        <mxCell id="1" parent="0" />
        <mxCell id="VpeXlG_l3gxCGdtEs8V7-1" value="Customer" style="shape=umlActor;verticalLabelPosition=bottom;verticalAlign=top;html=1;outlineConnect=0;" parent="1" vertex="1">
          <mxGeometry x="450" y="140" width="30" height="60" as="geometry" />
        </mxCell>
        <mxCell id="VpeXlG_l3gxCGdtEs8V7-4" value="Đăng nhập, đăng ký tài khoản" style="ellipse;whiteSpace=wrap;html=1;" parent="1" vertex="1">
          <mxGeometry x="670" y="20" width="120" height="80" as="geometry" />
        </mxCell>
        <mxCell id="VpeXlG_l3gxCGdtEs8V7-7" value="Admin" style="shape=umlActor;verticalLabelPosition=bottom;verticalAlign=top;html=1;outlineConnect=0;" parent="1" vertex="1">
          <mxGeometry x="420" y="555" width="30" height="60" as="geometry" />
        </mxCell>
        <mxCell id="VpeXlG_l3gxCGdtEs8V7-8" value="Employee" style="shape=umlActor;verticalLabelPosition=bottom;verticalAlign=top;html=1;outlineConnect=0;" parent="1" vertex="1">
          <mxGeometry x="420" y="900" width="30" height="60" as="geometry" />
        </mxCell>
        <mxCell id="YFiXxwOLq5PlyWNehpLN-1" value="" style="endArrow=none;html=1;rounded=0;entryX=0.017;entryY=0.606;entryDx=0;entryDy=0;entryPerimeter=0;" edge="1" parent="1" target="VpeXlG_l3gxCGdtEs8V7-4">
          <mxGeometry width="50" height="50" relative="1" as="geometry">
            <mxPoint x="500" y="150" as="sourcePoint" />
            <mxPoint x="200" y="120" as="targetPoint" />
          </mxGeometry>
        </mxCell>
        <mxCell id="YFiXxwOLq5PlyWNehpLN-2" value="Thêm thông tin cá nhân" style="ellipse;whiteSpace=wrap;html=1;" vertex="1" parent="1">
          <mxGeometry x="670" y="120" width="120" height="80" as="geometry" />
        </mxCell>
        <mxCell id="YFiXxwOLq5PlyWNehpLN-3" value="Cập nhật thông tin cá nhân" style="ellipse;whiteSpace=wrap;html=1;" vertex="1" parent="1">
          <mxGeometry x="680" y="220" width="120" height="80" as="geometry" />
        </mxCell>
        <mxCell id="YFiXxwOLq5PlyWNehpLN-4" value="" style="endArrow=none;html=1;rounded=0;entryX=0.017;entryY=0.347;entryDx=0;entryDy=0;entryPerimeter=0;" edge="1" parent="1" target="YFiXxwOLq5PlyWNehpLN-2">
          <mxGeometry width="50" height="50" relative="1" as="geometry">
            <mxPoint x="500" y="170" as="sourcePoint" />
            <mxPoint x="230" y="170" as="targetPoint" />
          </mxGeometry>
        </mxCell>
        <mxCell id="YFiXxwOLq5PlyWNehpLN-5" value="" style="endArrow=none;html=1;rounded=0;entryX=0;entryY=0.5;entryDx=0;entryDy=0;" edge="1" parent="1" target="YFiXxwOLq5PlyWNehpLN-3">
          <mxGeometry width="50" height="50" relative="1" as="geometry">
            <mxPoint x="500" y="190" as="sourcePoint" />
            <mxPoint x="220" y="250" as="targetPoint" />
          </mxGeometry>
        </mxCell>
        <mxCell id="YFiXxwOLq5PlyWNehpLN-6" value="Xem danh sách dịch vụ" style="ellipse;whiteSpace=wrap;html=1;" vertex="1" parent="1">
          <mxGeometry x="600" y="320" width="120" height="80" as="geometry" />
        </mxCell>
        <mxCell id="YFiXxwOLq5PlyWNehpLN-9" value="" style="endArrow=none;html=1;rounded=0;exitX=0.002;exitY=0.36;exitDx=0;exitDy=0;exitPerimeter=0;" edge="1" parent="1" source="YFiXxwOLq5PlyWNehpLN-6">
          <mxGeometry width="50" height="50" relative="1" as="geometry">
            <mxPoint x="510" y="320" as="sourcePoint" />
            <mxPoint x="500" y="220" as="targetPoint" />
          </mxGeometry>
        </mxCell>
        <mxCell id="YFiXxwOLq5PlyWNehpLN-10" value="Đặt dịch vụ" style="ellipse;whiteSpace=wrap;html=1;" vertex="1" parent="1">
          <mxGeometry x="420" y="340" width="120" height="80" as="geometry" />
        </mxCell>
        <mxCell id="YFiXxwOLq5PlyWNehpLN-11" value="" style="endArrow=none;html=1;rounded=0;exitX=0.381;exitY=-0.036;exitDx=0;exitDy=0;exitPerimeter=0;" edge="1" parent="1" source="YFiXxwOLq5PlyWNehpLN-10">
          <mxGeometry width="50" height="50" relative="1" as="geometry">
            <mxPoint x="420" y="280" as="sourcePoint" />
            <mxPoint x="470" y="230" as="targetPoint" />
          </mxGeometry>
        </mxCell>
        <mxCell id="YFiXxwOLq5PlyWNehpLN-12" value="Theo dõi tình trạng thú cưng" style="ellipse;whiteSpace=wrap;html=1;" vertex="1" parent="1">
          <mxGeometry x="240" y="290" width="120" height="80" as="geometry" />
        </mxCell>
        <mxCell id="YFiXxwOLq5PlyWNehpLN-13" value="Thanh toán" style="ellipse;whiteSpace=wrap;html=1;" vertex="1" parent="1">
          <mxGeometry x="190" y="170" width="120" height="80" as="geometry" />
        </mxCell>
        <mxCell id="YFiXxwOLq5PlyWNehpLN-14" value="Gửi phản hồi" style="ellipse;whiteSpace=wrap;html=1;" vertex="1" parent="1">
          <mxGeometry x="190" y="40" width="120" height="80" as="geometry" />
        </mxCell>
        <mxCell id="YFiXxwOLq5PlyWNehpLN-15" value="" style="endArrow=none;html=1;rounded=0;entryX=1.007;entryY=0.641;entryDx=0;entryDy=0;entryPerimeter=0;" edge="1" parent="1" target="YFiXxwOLq5PlyWNehpLN-14">
          <mxGeometry width="50" height="50" relative="1" as="geometry">
            <mxPoint x="430" y="150" as="sourcePoint" />
            <mxPoint x="180" y="150" as="targetPoint" />
          </mxGeometry>
        </mxCell>
        <mxCell id="YFiXxwOLq5PlyWNehpLN-16" value="" style="endArrow=none;html=1;rounded=0;exitX=0.994;exitY=0.367;exitDx=0;exitDy=0;exitPerimeter=0;" edge="1" parent="1" source="YFiXxwOLq5PlyWNehpLN-13">
          <mxGeometry width="50" height="50" relative="1" as="geometry">
            <mxPoint x="290" y="260" as="sourcePoint" />
            <mxPoint x="430" y="190" as="targetPoint" />
          </mxGeometry>
        </mxCell>
        <mxCell id="YFiXxwOLq5PlyWNehpLN-17" value="" style="endArrow=none;html=1;rounded=0;exitX=0.67;exitY=-0.02;exitDx=0;exitDy=0;exitPerimeter=0;" edge="1" parent="1" source="YFiXxwOLq5PlyWNehpLN-12">
          <mxGeometry width="50" height="50" relative="1" as="geometry">
            <mxPoint x="380" y="280" as="sourcePoint" />
            <mxPoint x="430" y="230" as="targetPoint" />
          </mxGeometry>
        </mxCell>
        <mxCell id="YFiXxwOLq5PlyWNehpLN-18" value="Tạo tài khoản nhân viên" style="ellipse;whiteSpace=wrap;html=1;" vertex="1" parent="1">
          <mxGeometry x="670" y="504" width="120" height="80" as="geometry" />
        </mxCell>
        <mxCell id="YFiXxwOLq5PlyWNehpLN-19" value="" style="endArrow=none;html=1;rounded=0;entryX=0;entryY=0.5;entryDx=0;entryDy=0;" edge="1" parent="1" target="YFiXxwOLq5PlyWNehpLN-18">
          <mxGeometry width="50" height="50" relative="1" as="geometry">
            <mxPoint x="470" y="560" as="sourcePoint" />
            <mxPoint x="520" y="540" as="targetPoint" />
          </mxGeometry>
        </mxCell>
        <mxCell id="YFiXxwOLq5PlyWNehpLN-20" value="Thêm, sửa xóa dịch vụ" style="ellipse;whiteSpace=wrap;html=1;" vertex="1" parent="1">
          <mxGeometry x="670" y="614" width="120" height="80" as="geometry" />
        </mxCell>
        <mxCell id="YFiXxwOLq5PlyWNehpLN-21" value="Thêm, sửa lịch làm việc nhân viên&amp;nbsp;" style="ellipse;whiteSpace=wrap;html=1;" vertex="1" parent="1">
          <mxGeometry x="650" y="730" width="120" height="80" as="geometry" />
        </mxCell>
        <mxCell id="YFiXxwOLq5PlyWNehpLN-22" value="" style="endArrow=none;html=1;rounded=0;entryX=-0.014;entryY=0.398;entryDx=0;entryDy=0;entryPerimeter=0;" edge="1" parent="1" target="YFiXxwOLq5PlyWNehpLN-20">
          <mxGeometry width="50" height="50" relative="1" as="geometry">
            <mxPoint x="480" y="590" as="sourcePoint" />
            <mxPoint x="550" y="600" as="targetPoint" />
          </mxGeometry>
        </mxCell>
        <mxCell id="YFiXxwOLq5PlyWNehpLN-23" value="" style="endArrow=none;html=1;rounded=0;exitX=0;exitY=0;exitDx=0;exitDy=0;" edge="1" parent="1" source="YFiXxwOLq5PlyWNehpLN-21">
          <mxGeometry width="50" height="50" relative="1" as="geometry">
            <mxPoint x="450" y="710" as="sourcePoint" />
            <mxPoint x="480" y="620" as="targetPoint" />
          </mxGeometry>
        </mxCell>
        <mxCell id="YFiXxwOLq5PlyWNehpLN-24" value="Thêm, tăng giảm lương nhân viên" style="ellipse;whiteSpace=wrap;html=1;" vertex="1" parent="1">
          <mxGeometry x="510" y="750" width="120" height="80" as="geometry" />
        </mxCell>
        <mxCell id="YFiXxwOLq5PlyWNehpLN-25" value="Xem danh sách thay đổi lương" style="ellipse;whiteSpace=wrap;html=1;" vertex="1" parent="1">
          <mxGeometry x="360" y="750" width="120" height="80" as="geometry" />
        </mxCell>
        <mxCell id="YFiXxwOLq5PlyWNehpLN-26" value="" style="endArrow=none;html=1;rounded=0;exitX=0.382;exitY=0.026;exitDx=0;exitDy=0;exitPerimeter=0;" edge="1" parent="1" source="YFiXxwOLq5PlyWNehpLN-24">
          <mxGeometry width="50" height="50" relative="1" as="geometry">
            <mxPoint x="400" y="690" as="sourcePoint" />
            <mxPoint x="460" y="640" as="targetPoint" />
          </mxGeometry>
        </mxCell>
        <mxCell id="YFiXxwOLq5PlyWNehpLN-27" value="" style="endArrow=none;html=1;rounded=0;exitX=0.5;exitY=0;exitDx=0;exitDy=0;" edge="1" parent="1" source="YFiXxwOLq5PlyWNehpLN-25">
          <mxGeometry width="50" height="50" relative="1" as="geometry">
            <mxPoint x="370" y="690" as="sourcePoint" />
            <mxPoint x="430" y="640" as="targetPoint" />
          </mxGeometry>
        </mxCell>
        <mxCell id="YFiXxwOLq5PlyWNehpLN-28" value="Xem báo cáo doanh thu" style="ellipse;whiteSpace=wrap;html=1;" vertex="1" parent="1">
          <mxGeometry x="210" y="720" width="120" height="80" as="geometry" />
        </mxCell>
        <mxCell id="YFiXxwOLq5PlyWNehpLN-29" value="" style="endArrow=none;html=1;rounded=0;exitX=1;exitY=0;exitDx=0;exitDy=0;" edge="1" parent="1" source="YFiXxwOLq5PlyWNehpLN-28">
          <mxGeometry width="50" height="50" relative="1" as="geometry">
            <mxPoint x="350" y="680" as="sourcePoint" />
            <mxPoint x="400" y="630" as="targetPoint" />
          </mxGeometry>
        </mxCell>
        <mxCell id="YFiXxwOLq5PlyWNehpLN-30" value="Quản lý khuyến mãi" style="ellipse;whiteSpace=wrap;html=1;" vertex="1" parent="1">
          <mxGeometry x="150" y="614" width="120" height="80" as="geometry" />
        </mxCell>
        <mxCell id="YFiXxwOLq5PlyWNehpLN-31" value="Quản lý phản hồi khách hàng" style="ellipse;whiteSpace=wrap;html=1;" vertex="1" parent="1">
          <mxGeometry x="130" y="500" width="120" height="80" as="geometry" />
        </mxCell>
        <mxCell id="YFiXxwOLq5PlyWNehpLN-32" value="" style="endArrow=none;html=1;rounded=0;" edge="1" parent="1">
          <mxGeometry width="50" height="50" relative="1" as="geometry">
            <mxPoint x="270" y="640" as="sourcePoint" />
            <mxPoint x="390" y="590" as="targetPoint" />
          </mxGeometry>
        </mxCell>
        <mxCell id="YFiXxwOLq5PlyWNehpLN-33" value="" style="endArrow=none;html=1;rounded=0;exitX=1;exitY=0.5;exitDx=0;exitDy=0;" edge="1" parent="1" source="YFiXxwOLq5PlyWNehpLN-31">
          <mxGeometry width="50" height="50" relative="1" as="geometry">
            <mxPoint x="300" y="560" as="sourcePoint" />
            <mxPoint x="380" y="560" as="targetPoint" />
          </mxGeometry>
        </mxCell>
        <mxCell id="YFiXxwOLq5PlyWNehpLN-34" value="Xem lịch làm việc" style="ellipse;whiteSpace=wrap;html=1;" vertex="1" parent="1">
          <mxGeometry x="610" y="880" width="120" height="80" as="geometry" />
        </mxCell>
        <mxCell id="YFiXxwOLq5PlyWNehpLN-35" value="Xem lương" style="ellipse;whiteSpace=wrap;html=1;" vertex="1" parent="1">
          <mxGeometry x="600" y="1000" width="120" height="80" as="geometry" />
        </mxCell>
        <mxCell id="YFiXxwOLq5PlyWNehpLN-36" value="" style="endArrow=none;html=1;rounded=0;entryX=0;entryY=0.5;entryDx=0;entryDy=0;" edge="1" parent="1" target="YFiXxwOLq5PlyWNehpLN-34">
          <mxGeometry width="50" height="50" relative="1" as="geometry">
            <mxPoint x="480" y="930" as="sourcePoint" />
            <mxPoint x="530" y="880" as="targetPoint" />
          </mxGeometry>
        </mxCell>
        <mxCell id="YFiXxwOLq5PlyWNehpLN-38" value="" style="endArrow=none;html=1;rounded=0;entryX=0;entryY=0.5;entryDx=0;entryDy=0;" edge="1" parent="1" target="YFiXxwOLq5PlyWNehpLN-35">
          <mxGeometry width="50" height="50" relative="1" as="geometry">
            <mxPoint x="480" y="960" as="sourcePoint" />
            <mxPoint x="550" y="950" as="targetPoint" />
          </mxGeometry>
        </mxCell>
        <mxCell id="YFiXxwOLq5PlyWNehpLN-39" value="Ghi trạng thái thú cưng sau chăm sóc" style="ellipse;whiteSpace=wrap;html=1;" vertex="1" parent="1">
          <mxGeometry x="180" y="910" width="120" height="80" as="geometry" />
        </mxCell>
        <mxCell id="YFiXxwOLq5PlyWNehpLN-40" value="" style="endArrow=none;html=1;rounded=0;exitX=1;exitY=0.5;exitDx=0;exitDy=0;" edge="1" parent="1" source="YFiXxwOLq5PlyWNehpLN-39">
          <mxGeometry width="50" height="50" relative="1" as="geometry">
            <mxPoint x="330" y="940" as="sourcePoint" />
            <mxPoint x="400" y="930" as="targetPoint" />
          </mxGeometry>
        </mxCell>
      </root>
    </mxGraphModel>
  </diagram>
</mxfile>
